<svg id="SvgjsSvg1001" width="288" height="288" xmlns="http://www.w3.org/2000/svg" version="1.1" xmlns:xlink="http://www.w3.org/1999/xlink" xmlns:svgjs="http://svgjs.com/svgjs"><defs id="SvgjsDefs1002"></defs><g id="SvgjsG1008"><svg xmlns="http://www.w3.org/2000/svg" data-name="Artboard 30" viewBox="0 0 64 64" width="288" height="288"><path fill="#39bdc8" d="m34.215 24.477 1.7 35.441a2 2 0 0 1-2 2.082h-3.832a2 2 0 0 1-2-2.082l1.7-35.441L32 23Z" class="colorfd706f svgShape"></path><path fill="#59d4e8" d="M48 10a7 7 0 0 0 7-7 7 7 0 0 0 7 7 7 7 0 0 0-7 7 7 7 0 0 0-7-7zM2 32a7 7 0 0 0 7-7 7 7 0 0 0 7 7 7 7 0 0 0-7 7 7 7 0 0 0-7-7z" class="colorffc239 svgShape"></path><path fill="#caa5f1" d="M42 28h5v2h-5zM47 23h2v5h-2zM47 30h2v5h-2zM49 28h5v2h-5zM10 10h5v2h-5zM15 5h2v5h-2zM15 12h2v5h-2zM17 10h5v2h-5z" class="colorffb127 svgShape"></path><path fill="#ff5db9" d="m26 27 1-7-5-4h7l3-7 3 7h7l-5 4 1 7-6-4-6 4z" class="colorffd55d svgShape"></path><path fill="#ff78c5" d="m35 16-3-7-.948 2.212a3695 3695 0 0 0 2.126 4.961 1.993 1.993 0 0 0 1.836 1.207h5.26L42 16Z" class="colorffe078 svgShape"></path><path fill="#59d4e8" d="M24 16h-2l5 4-1 7 2.211-1.474L29 20l-5-4zM33 11.333 32 9l-3 7h2l2-4.667zM32 23l6 4-.211-1.474L33 22.333 32 23z" class="colorffc239 svgShape"></path><path fill="#fd8ccc" d="M34.215 24.477 32 23l-.252.168-1.58 32.932a2 2 0 0 0 2 2.082h3.665Z" class="colorfd8d8c svgShape"></path><path fill="#fac0e1" d="M33.917 62a2 2 0 0 0 2-2.082l-.462-9.637a8.651 8.651 0 0 1-6.906 0l-.462 9.637a2 2 0 0 0 2 2.082Z" class="colore5e5e5 svgShape"></path><path fill="#f2f2f2" d="m35.559 52.5-.106-2.222A8.467 8.467 0 0 1 32 51a8.764 8.764 0 0 1-1.58-.151l-.252 5.251a2 2 0 0 0 2 2.082h3.665Z" class="colorf2f2f2 svgShape"></path></svg></g></svg>